<?xml version="1.0" standalone="no"?>
<!DOCTYPE svg PUBLIC "-//W3C//DTD SVG 1.1//EN" "http://www.w3.org/Graphics/SVG/1.1/DTD/svg11.dtd" >
<svg xmlns="http://www.w3.org/2000/svg">
<metadata>
This is a custom SVG webfont generated by Font Squirrel.
Foundry     : Thomas Hanke
Foundry URL : http://www.sign-lang.uni-hamburg.de/hamnosys
</metadata>
<defs>
<font id="webfonthQgLc5jm" horiz-adv-x="600" >
<font-face units-per-em="1000" ascent="800" descent="-200" />
<missing-glyph horiz-adv-x="362" />
<glyph unicode=" "  horiz-adv-x="362" />
<glyph unicode="&#x09;" horiz-adv-x="362" />
<glyph unicode="&#xa0;" horiz-adv-x="362" />
<glyph unicode="!" horiz-adv-x="290" d="M114 612h58v-476h-58v476zM114 90h58v-57h-58v57z" />
<glyph unicode="," horiz-adv-x="302" d="M70 0v90h120v-90l-120 -150h-60z" />
<glyph unicode="." horiz-adv-x="161" d="M130 84q17 0 29.5 -12.5t12.5 -29.5t-12.5 -29.5t-29.5 -12.5t-29.5 12.5t-12.5 29.5t12.5 29.5t29.5 12.5z" />
<glyph unicode="?" horiz-adv-x="437" d="M274 175h-57q-1 61 7 94q12 47 47 83l88 85q46 49 46 94q0 53 -41 87.5t-112 34.5q-70 0 -111 -45.5t-39 -114.5h-60q-7 93 54 152.5t158 59.5q99 0 156.5 -49t57.5 -130q0 -49 -32 -91q-17 -22 -72 -71q-49 -44 -69.5 -75.5t-20.5 -113.5zM282 2h-71v84h71v-84z" />
<glyph unicode="{" horiz-adv-x="400" d="M137 53v194q0 55 -26 82.5t-102 42.5q76 15 103 44q25 26 25 81v194q0 92 67 126q54 27 187 27v-13q-71 -12 -99.5 -43.5t-28.5 -90.5v-185q0 -62 -24 -91q-30 -34 -112 -48v-2q82 -14 112 -48q24 -29 24 -91v-185q0 -58 28.5 -90t99.5 -43v-13q-133 0 -187 27 q-67 34 -67 125z" />
<glyph unicode="|" horiz-adv-x="400" d="M143 844h116l-1 -1000h-116z" />
<glyph unicode="}" horiz-adv-x="400" d="M9 -104v13q71 12 100 45q28 30 28 89v185q0 62 24 91q30 34 112 48v2q-82 14 -112 48q-24 29 -24 91v185q0 58 -28.5 90t-99.5 43v13q133 0 187 -27q67 -34 67 -125v-194q0 -55 25 -81q27 -29 103 -44q-76 -15 -102 -42.5t-26 -82.5v-194q0 -92 -67 -126 q-54 -27 -187 -27z" />
<glyph unicode="&#x2000;" horiz-adv-x="422" />
<glyph unicode="&#x2001;" horiz-adv-x="844" />
<glyph unicode="&#x2002;" horiz-adv-x="422" />
<glyph unicode="&#x2003;" horiz-adv-x="844" />
<glyph unicode="&#x2004;" horiz-adv-x="281" />
<glyph unicode="&#x2005;" horiz-adv-x="211" />
<glyph unicode="&#x2006;" horiz-adv-x="140" />
<glyph unicode="&#x2007;" horiz-adv-x="140" />
<glyph unicode="&#x2008;" horiz-adv-x="105" />
<glyph unicode="&#x2009;" horiz-adv-x="168" />
<glyph unicode="&#x200a;" horiz-adv-x="46" />
<glyph unicode="&#x202f;" horiz-adv-x="168" />
<glyph unicode="&#x205f;" horiz-adv-x="211" />
<glyph unicode="&#xe000;" horiz-adv-x="700" d="M201 1q-82 0 -140 58t-58 140t58 140t140 58h252q82 0 140 -58t58 -140t-58 -140t-140 -58h-252zM30 199q0 -71 50 -121t121 -50h252q71 0 121 50t50 121t-50 121t-121 50h-252q-71 0 -121 -50t-50 -121z" />
<glyph unicode="&#xe001;" horiz-adv-x="700" d="M605 125q0 -52 -36.5 -88.5t-88.5 -36.5h-260q-52 0 -88.5 36.5t-36.5 88.5v195q0 105 75 180t180 75t180 -75t75 -180v-195zM575 125v195q0 92 -66.5 158.5t-158.5 66.5q-93 0 -159 -66.5t-66 -158.5v-195q0 -38 28 -66.5t67 -28.5h260q38 0 66.5 28.5t28.5 66.5z" />
<glyph unicode="&#xe002;" horiz-adv-x="700" d="M520 570q20 0 20 -30v-305q0 1 17 -12q19 -16 31 -36q17 -28 17 -62q0 -52 -36.5 -88.5t-88.5 -36.5h-260q-52 0 -88.5 36.5t-36.5 88.5t36.5 88.5t88.5 36.5h280v290q0 30 20 30zM220 220q-39 0 -67 -28t-28 -67t28 -67t67 -28h260q39 0 67 28t28 67t-28 67t-67 28h-260 z" />
<glyph unicode="&#xe003;" horiz-adv-x="700" d="M500 250v290q0 30 20 30t20 -30v-305q0 1 17 -12q19 -16 31 -36q17 -28 17 -62q0 -52 -36.5 -88.5t-88.5 -36.5h-260q-52 0 -88.5 36.5t-36.5 88.5t36.5 88.5t88.5 36.5h173v290q0 30 20 30t20 -30v-290h67zM220 220q-39 0 -67 -28t-28 -67t28 -67t67 -28h260q39 0 67 28 t28 67t-28 67t-67 28h-260z" />
<glyph unicode="&#xe004;" horiz-adv-x="700" d="M540 235q65 -41 65 -110q0 -52 -36.5 -88.5t-88.5 -36.5h-260q-51 0 -88 36.5t-37 88.5t37 88.5t88 36.5h173v290q0 30 20 30t20 -30v-290h67l102 262q11 27 29 21q20 -6 9 -35zM220 220q-39 0 -67 -28t-28 -67t28 -67t67 -28h260q39 0 67 28t28 67t-28 67t-67 28h-260z " />
<glyph unicode="&#xe005;" horiz-adv-x="700" d="M220 250h67l-15 291q-2 30 18 30t22 -30l15 -291h66l15 290q2 30 22 30t18 -30l-15 -290h67l31 290q3 30 23 30t17 -30l-33 -305q1 1 18 -12q20 -16 32 -36q17 -28 17 -62q0 -52 -36.5 -88.5t-88.5 -36.5h-260q-52 0 -88.5 36.5t-36.5 88.5q0 36 22 68q15 22 41 41 q22 16 22 15l-31 291q-3 30 17 30t23 -30zM480 220h-260q-39 0 -67 -28t-28 -67t28 -67t67 -28h260q39 0 67 28t28 67t-28 67t-67 28z" />
<glyph unicode="&#xe006;" horiz-adv-x="700" d="M465 320q9 3 43 -5q47 -12 76 -42q41 -42 41 -113q0 -100 -80 -140q-33 -17 -80 -20l-350 160zM173 160l292 -130q130 9 130 130t-130 130z" />
<glyph unicode="&#xe007;" horiz-adv-x="700" d="M173 160l292 -130q130 9 130 130t-130 130zM465 410q41 0 76 -16q74 -36 82 -134q2 -24 2 -100q0 -100 -80 -140q-33 -17 -80 -20l-350 158q0 5 54 62q66 70 131 117q91 65 165 73zM465 320q8 3 35.5 -3.5t39.5 -12.5q35 -18 55 -44q0 51 -46 92q-29 26 -82 22 q-94 -7 -285 -185z" />
<glyph unicode="&#xe008;" horiz-adv-x="700" d="M173 160l292 -130q130 9 130 130t-130 130zM115 160l350 160q16 -1 30 -3q32 -6 49 -16q24 -15 51 -55q-3 35 -11 68q-19 79 -60 133q-85 109 -239 103v30q165 6 260 -112q68 -84 80 -184v-124q-1 -20 -6 -39q-12 -45 -41 -74q-43 -43 -113 -47z" />
<glyph unicode="&#xe009;" horiz-adv-x="700" d="M183 30h282q53 0 91.5 38.5t38.5 91.5t-38.5 91.5t-91.5 38.5h-282v30h282q66 0 113 -47t47 -113t-47 -113t-113 -47h-282v30z" />
<glyph unicode="&#xe00a;" horiz-adv-x="700" d="M595 160v10h-412q0 33 12 60.5t32 47.5t46 31t54 11h138q33 0 62 -12.5t51 -34.5t34.5 -51t12.5 -62t-12.5 -62t-34.5 -50.5t-51 -34.5t-62 -13h-282v30h282q53 0 91.5 38.5t38.5 91.5zM327 290q-45 0 -75 -26.5t-37 -63.5h374q-3 14 -13.5 30t-27.5 29.5t-38 22t-45 8.5 h-138z" />
<glyph unicode="&#xe00b;" horiz-adv-x="700" d="M593 246q-6 138 -89 223q-86 87 -221 81v30q170 0 260 -112q82 -101 81 -217l-1 -91q0 -64 -47 -113q-28 -30 -50 -38.5t-63 -8.5h-250v30h250q61 0 96 41q32 36 32 89t-32 89q-35 41 -96 41l-249 -1v30l249 1q83 0 130 -74z" />
<glyph unicode="&#xe00c;" horiz-adv-x="150" d="M-192 30l36 32l206 203q16 16 29 6q7 -5 6 -16t-8 -15l-191 -191q-17 -17 -26.5 -22.5t-29.5 -11.5q-67 -17 -136 -15l1 25z" />
<glyph unicode="&#xe00d;" horiz-adv-x="0" d="M-127 70q-7 2 -20 5l-321 56q-12 2 -9 19q2 12 17 9l350 -61v-29q-4 0 -9 1h-8z" />
<glyph unicode="&#xe00e;" horiz-adv-x="0" d="M-205 30v-30l-249 -175q-9 -6 -20 -4q-12 2 -12 13q0 12 16 23l249 173h16z" />
<glyph unicode="&#xe010;" horiz-adv-x="0" d="M-150 750h-400v30h400v-30z" />
<glyph unicode="&#xe011;" horiz-adv-x="0" d="M-520 660h-30q0 57 62 90q57 30 138 30t138 -30q62 -33 62 -90h-30q-14 43 -64 67q-46 23 -106 23t-106 -23q-50 -24 -64 -67z" />
<glyph unicode="&#xe012;" horiz-adv-x="0" d="M-150 630h-30v120h-340v-120h-30v150h400v-150z" />
<glyph unicode="&#xe013;" horiz-adv-x="0" d="M-350 750l-171 -90h-29l200 120l200 -120h-30z" />
<glyph unicode="&#xe014;" horiz-adv-x="0" d="M-350 690l171 90h29l-200 -120l-200 120h30z" />
<glyph unicode="&#xe020;" horiz-adv-x="450" d="M224 204l153 -194l-153 92l-151 -92z" />
<glyph unicode="&#xe021;" horiz-adv-x="450" d="M347 267l-29 -245l-43 173l-172 42z" />
<glyph unicode="&#xe022;" horiz-adv-x="450" d="M322 164l-194 -153l92 153l-92 151z" />
<glyph unicode="&#xe023;" horiz-adv-x="450" d="M347 23l-245 29l173 43l42 172z" />
<glyph unicode="&#xe024;" horiz-adv-x="450" d="M226 12l-153 194l153 -92l151 92z" />
<glyph unicode="&#xe025;" horiz-adv-x="450" d="M103 12l29 245l43 -173l172 -42z" />
<glyph unicode="&#xe026;" horiz-adv-x="450" d="M128 163l194 153l-92 -153l92 -151z" />
<glyph unicode="&#xe027;" horiz-adv-x="450" d="M102 255l245 -29l-173 -43l-42 -172z" />
<glyph unicode="&#xe028;" horiz-adv-x="450" d="M88 309l245 -29l-173 -43l-42 -172zM14 30h422v-30h-422v30z" />
<glyph unicode="&#xe029;" horiz-adv-x="450" d="M225 264l153 -194l-153 92l-151 -92zM31 30h388v-30h-388v30z" />
<glyph unicode="&#xe02a;" horiz-adv-x="450" d="M361 308l-29 -245l-43 173l-172 42zM15 30h420v-30h-420v30z" />
<glyph unicode="&#xe02b;" horiz-adv-x="450" d="M88 67l29 245l43 -173l172 -42zM435 0h-420v30h420v-30z" />
<glyph unicode="&#xe02c;" horiz-adv-x="450" d="M420 0h-390v30h390v-30zM222 50l-151 194l151 -92l153 92z" />
<glyph unicode="&#xe02d;" horiz-adv-x="450" d="M435 0h-420v30h420v-30zM361 64l-244 30l172 42l43 173z" />
<glyph unicode="&#xe02e;" horiz-adv-x="450" d="M85 309l245 -29l-173 -43l-42 -172zM20 0v390h30v-390h-30z" />
<glyph unicode="&#xe02f;" horiz-adv-x="450" d="M85 36l29 245l43 -173l172 -42zM20 390h30v-390h-30v390z" />
<glyph unicode="&#xe030;" horiz-adv-x="450" d="M357 46l-245 29l173 43l42 172zM20 400h30v-400h-30v400z" />
<glyph unicode="&#xe031;" horiz-adv-x="450" d="M358 308l-29 -245l-43 173l-172 42zM20 0v390h30v-390h-30z" />
<glyph unicode="&#xe038;" horiz-adv-x="450" d="M205 237q82 0 140.5 -33t58.5 -80t-58.5 -80t-140.5 -33t-140.5 33t-58.5 80t58.5 80t140.5 33zM205 162q-82 0 -135 -14q-44 -12 -44 -24q0 -39 54.5 -66t124.5 -27q84 0 135 31q44 27 44 62q0 13 -55 25q-58 13 -124 13z" />
<glyph unicode="&#xe039;" horiz-adv-x="450" d="M387 93q0 -37 -21 -58t-58 -21q-81 0 -163 82t-82 163q0 37 21 58t58 21q81 0 163 -82t82 -163zM252 203q-103 102 -148 102q-4 0 -6 -2q-16 -16 -16 -43q0 -73 77 -150t147 -77q30 0 46 16q2 2 2 5q0 18 -29 61q-31 47 -73 88z" />
<glyph unicode="&#xe03a;" horiz-adv-x="450" d="M338 206q0 -82 -33 -140.5t-80 -58.5t-80 58.5t-33 140.5t33 140.5t80 58.5t80 -58.5t33 -140.5zM263 206q0 82 -14 135q-12 44 -24 44q-39 0 -66 -54.5t-27 -124.5q0 -84 31 -135q27 -44 62 -44q13 0 25.5 56.5t12.5 122.5z" />
<glyph unicode="&#xe03b;" horiz-adv-x="450" d="M142 3q-37 0 -58 21t-21 58q0 81 82 163t163 82q37 0 58 -21t21 -58q0 -81 -82 -163t-163 -82zM252 138q102 103 102 148q0 4 -2 6q-16 16 -43 16q-73 0 -150 -77t-77 -147q0 -30 16 -46q2 -2 5 -2q18 0 61 29q47 31 88 73z" />
<glyph unicode="&#xe03c;" horiz-adv-x="450" d="M225 11q-82 0 -140.5 33t-58.5 80t58.5 80t140.5 33t140.5 -33t58.5 -80t-58.5 -80t-140.5 -33zM225 86q82 0 135 14q44 12 44 24q0 39 -54.5 66t-124.5 27q-84 0 -135 -31q-44 -27 -44 -62q0 -13 56.5 -25.5t122.5 -12.5z" />
<glyph unicode="&#xe03d;" horiz-adv-x="450" d="M63 266q0 37 21 58t58 21q81 0 163 -82t82 -163q0 -37 -21 -58t-58 -21q-81 0 -163 82t-82 163zM198 156q103 -102 148 -102q4 0 6 2q16 16 16 43q0 73 -77 150t-147 77q-30 0 -46 -16q-2 -2 -2 -5q0 -18 29 -61q31 -47 73 -88z" />
<glyph unicode="&#xe03e;" horiz-adv-x="450" d="M112 209q0 82 33 140.5t80 58.5t80 -58.5t33 -140.5t-33 -140.5t-80 -58.5t-80 58.5t-33 140.5zM187 209q0 -82 14 -135q12 -44 24 -44q39 0 66 54.5t27 124.5q0 84 -31 135q-27 44 -62 44q-13 0 -25 -55q-13 -58 -13 -124z" />
<glyph unicode="&#xe03f;" horiz-adv-x="450" d="M308 332q37 0 58 -21t21 -58q0 -81 -82 -163t-163 -82q-37 0 -58 21t-21 58q0 81 82 163t163 82zM198 197q-102 -103 -102 -148q0 -4 2 -6q16 -16 43 -16q73 0 150 77t77 147q0 30 -16 46q-2 2 -5 2q-18 0 -61 -29q-47 -31 -88 -73z" />
<glyph unicode="&#xe040;" horiz-adv-x="700" d="M575 345q0 93 -66 159t-159 66t-159 -66t-66 -159v-90q0 -93 66 -159t159 -66t159 66t66 159v90zM605 255q0 -105 -75 -180t-180 -75t-180 75t-75 180v90q0 105 75 180t180 75t180 -75t75 -180v-90z" />
<glyph unicode="&#xe041;" horiz-adv-x="700" d="M575 345q0 93 -66 159t-159 66t-159 -66t-66 -159v-90q0 -93 66 -159t159 -66t159 66t66 159v90zM605 255q0 -105 -75 -180t-180 -75t-180 75t-75 180v90q0 105 75 180t180 75t180 -75t75 -180v-90zM555 600h-400v30h400v-30z" />
<glyph unicode="&#xe042;" horiz-adv-x="700" d="M554 332q-28 28 -59 28h-290q-30 0 -62 -32q-28 -28 -28 -58v-150h-30v150q0 48 36 84t84 36h290q48 0 84 -36t36 -84v-150h-30v150q0 31 -31 62z" />
<glyph unicode="&#xe043;" horiz-adv-x="700" d="M315 230h70q48 101 150 90q60 -6 101.5 -44t48.5 -96q-13 52 -53.5 81t-96.5 29q-92 0 -130 -90h-110q-38 90 -130 90q-56 0 -96.5 -29t-53.5 -81q7 58 48.5 96t101.5 44q102 11 150 -90z" />
<glyph unicode="&#xe044;" horiz-adv-x="700" d="M432 320q63 24 94 22q59 -4 99 -33q45 -33 45 -84t-45 -85q-40 -29 -99 -32q-74 -4 -130 59q-5 5 -19 36q-9 22 -26 22q-18 0 -27 -22q-14 -31 -18 -36q-57 -63 -131 -59q-58 3 -99 32q-45 34 -45 85t45 84q41 29 99 33q32 2 95 -22q10 -5 39 -26q22 -15 42 -15 q19 0 41 15q29 21 40 26zM175 135q47 0 80 23q37 26 37 67t-37 67q-33 23 -80 23t-80 -23q-37 -26 -37 -67t37 -67q33 -23 80 -23zM526 135q47 0 80 23q37 26 37 67t-37 67q-33 23 -80 23t-80 -23q-37 -26 -37 -67t37 -67q33 -23 80 -23z" />
<glyph unicode="&#xe045;" horiz-adv-x="700" d="M335 580h30v-265q33 -1 42 -4q18 -6 43 -33q10 -11 18 -58q6 -42 6 -79q0 -31 -5 -31q-16 -1 -19.5 39t-6.5 80q-8 46 -36 54q-14 4 -22 -1q-16 -10 -18 -94q-1 -78 -17 -78q-18 0 -19 79q-1 83 -16 93q-6 3 -22 1q-14 -2 -26.5 -24t-15.5 -93q-2 -57 -20 -56q-5 0 -5 31 q0 37 6 79q8 47 18 58q25 27 43 33q9 3 42 4v265z" />
<glyph unicode="&#xe046;" horiz-adv-x="700" d="M331 580h30v-265q33 -1 42 -4q18 -6 43 -33q10 -11 18 -58q6 -42 6 -79q0 -31 -5 -31q-16 -1 -19.5 39t-6.5 80q-8 46 -36 54q-14 4 -22 -1q-16 -10 -18 -94q-1 -78 -17 -78q-18 0 -19 79q-1 83 -16 93q-6 3 -22 1q-14 -2 -26.5 -24t-15.5 -93q-2 -57 -20 -56q-5 0 -5 31 q0 37 6 79q8 47 18 58q25 27 43 33q9 3 42 4v265zM489 31h-278v37h278v-37z" />
<glyph unicode="&#xe047;" horiz-adv-x="700" d="M206 473q-13 29 -13 60q0 77 67 122q34 23 75 23q66 0 117 -51q54 -54 54 -104q0 -58 -100 -191q-33 -43 -49 -95.5t-22 -60.5q-16 -24 -62 -31q-27 -4 -45 25q-16 26 -16 62q0 23 7 39q14 31 16 49q2 14 8 25l40 5q-3 -13 -5 -26q-8 -29 -26 -58q-7 -11 -7 -35 q0 -56 28 -56q25 0 57 75q40 95 48 105q89 113 89 170q0 39 -39 84t-93 45q-48 0 -80.5 -40t-32.5 -90q0 -27 12 -49z" />
<glyph unicode="&#xe048;" horiz-adv-x="700" d="M22 473q-13 29 -13 60q0 77 67 122q34 23 75 23q66 0 117 -51q54 -54 54 -104q0 -58 -100 -191q-33 -43 -49 -95.5t-22 -60.5q-16 -24 -62 -31q-27 -4 -45 25q-16 26 -16 62q0 23 7 39q14 31 16 49q2 14 8 25l40 5q-3 -13 -5 -26q-8 -29 -26 -58q-7 -11 -7 -35 q0 -56 28 -56q25 0 57 75q40 95 48 105q89 113 89 170q0 39 -39 84t-93 45q-48 0 -80.5 -40t-32.5 -90q0 -27 12 -49zM13 77h286v-47h-286v47zM13 77v-47v47z" />
<glyph unicode="&#xe049;" horiz-adv-x="700" d="M477 345q2 -108 -62 -196q-67 -92 -163 -92q-15 0 -30 3q102 -8 168 85q62 87 57 200q-4 89 -130 135q64 37 70 110q6 74 -46 120h31q43 -53 40 -120q-3 -62 -45 -110q109 -56 110 -135z" />
<glyph unicode="&#xe04a;" horiz-adv-x="700" d="M350 20q-93 0 -161 25t-139 85q64 82 188 82q20 0 42 -2q14 -1 34 -16t36 -14q15 1 35 15t35 15q22 2 42 2q124 0 188 -82q-71 -60 -139 -85t-161 -25zM90 130q68 -41 124.5 -57.5t135.5 -17.5q80 -2 140 14t130 56q-79 49 -170 50q-18 0 -48.5 -8.5t-51.5 -6.5 q-53 5 -72 12q-11 3 -28 3q-85 -2 -160 -45z" />
<glyph unicode="&#xe04b;" horiz-adv-x="700" d="M350 20q-93 0 -161 25t-139 85q64 82 188 82q20 0 42 -2q14 -1 34 -16t36 -14q15 1 35 15t35 15q22 2 42 2q124 0 188 -82q-71 -60 -139 -85t-161 -25zM90 130q68 -41 124.5 -57.5t135.5 -17.5q80 -2 140 14t130 56q-79 49 -170 50q-18 0 -48.5 -8.5t-51.5 -6.5 q-53 5 -72 12q-11 3 -28 3q-85 -2 -160 -45zM210 111q0 8 42 14.5t101 6.5t101 -6.5t42 -14.5q0 -9 -42 -15.5t-101 -6.5t-101 6.5t-42 15.5z" />
<glyph unicode="&#xe04c;" horiz-adv-x="700" d="M350 20q-93 0 -161 25t-139 85q64 82 188 82q20 0 42 -2q14 -1 34 -16t36 -14q15 1 35 15t35 15q22 2 42 2q124 0 188 -82q-71 -60 -139 -85t-161 -25zM90 130q120 -72 280 -75q75 -1 130 17q41 13 119 58q-45 28 -72 36.5t-77 8.5q-20 0 -50.5 -7.5t-49.5 -7.5 q-17 0 -48.5 7.5t-51.5 7.5q-106 -2 -180 -45zM81 127h545v-13h-545v13zM187 169h9v-89h-9v89zM238 176h9v-109h-9v109zM513 176h9v-109h-9v109zM295 175h9v-119h-9v119zM349 163h9v-109h-9v109zM408 172h9v-117h-9v117zM295 175h9v-119h-9v119zM470 179v-121h-8zM462 58 v121h8z" />
<glyph unicode="&#xe04d;" horiz-adv-x="700" d="M610 320q-5 -76 -32 -130q-65 -130 -228 -130q-162 0 -227 130q-28 54 -33 130h30q0 -18 15 -61q24 -68 66 -110q60 -59 149 -59q125 0 190 115q27 48 40 115h30z" />
<glyph unicode="&#xe04e;" horiz-adv-x="700" d="M610 290q-5 -76 -32 -130q-65 -130 -228 -130q-162 0 -227 130q-28 54 -33 130h30q0 -18 15 -61q24 -68 66 -110q60 -59 149 -59q125 0 190 115q27 48 40 115h30zM550 0h-400v30h400v-30z" />
<glyph unicode="&#xe04f;" horiz-adv-x="700" d="M257 345q14 -29 18 -55v-290h-150v30h120v260q-2 12 -16 40q-2 2 -3 5t-19 24q-25 29 -32 33l-50 48h47l43 -40q22 -15 42 -55zM443 345q20 40 42 55l43 40h47l-50 -48q-7 -4 -32 -33q-7 -8 -19 -25q-1 -1 -3 -4q-8 -9 -11 -20q-5 -19 -5 -20v-260h120v-30h-150v290 q4 26 18 55z" />
<glyph unicode="&#xe050;" horiz-adv-x="700" d="M149 145l-130 455h660l-130 -455h-400zM603 450h-508l79 -275h350zM23 656v49h657v-49h-657zM23 656h657h-657z" />
<glyph unicode="&#xe051;" horiz-adv-x="700" d="M150 145l-130 455h660l-130 -455h-400zM604 450h-508l79 -275h350z" />
<glyph unicode="&#xe052;" horiz-adv-x="700" d="M150 145l-130 455h660l-130 -455h-400zM559 300h-418l34 -125h350zM102 450h496l36 120h-568z" />
<glyph unicode="&#xe053;" horiz-adv-x="700" d="M150 145l-130 455h660l-130 -455h-400zM141 295h423l71 275h-573z" />
<glyph unicode="&#xe054;" horiz-adv-x="700" d="M150 145l-130 455h660l-130 -455h-400zM141 295h423l71 275h-573zM550 85v-85h-400v85h400z" />
<glyph unicode="&#xe058;" horiz-adv-x="280" d="M50 420h180v-180h-180v180zM80 270h120v120h-120v-120z" />
<glyph unicode="&#xe059;" horiz-adv-x="280" d="M50 421h180v-180h-180v180z" />
<glyph unicode="&#xe05a;" horiz-adv-x="0" d="M-127 126h-434v527h434v-527zM-158 159v461h-370v-461h370z" />
<glyph unicode="&#xe05b;" horiz-adv-x="0" d="M-147 432q0 85 -60.5 145.5t-145.5 60.5t-145.5 -60.5t-60.5 -145.5v-82q0 -86 60.5 -146t145.5 -60t145.5 60t60.5 146v82zM-119 350q0 -97 -69 -165.5t-165 -68.5t-165 68.5t-69 165.5v82q0 96 69 165t165 69t165 -69t69 -165v-82z" />
<glyph unicode="&#xe05f;" horiz-adv-x="700" d="M561 624l21 -22q80 -84 80 -210t-79 -214q-87 -98 -234 -98q-126 0 -212 76l-77 -76l-21 21l77 77q-78 86 -78 211q0 126 78 214q86 97 233 97q139 0 212 -76zM561 581l-403 -403q75 -68 191 -68q131 0 209 87q70 79 70 193q0 111 -67 191zM582 602l-21 22l77 76l21 -21z M540 602q-75 68 -191 68q-132 0 -209 -87q-70 -79 -70 -193q0 -112 67 -191z" />
<glyph unicode="&#xe060;" horiz-adv-x="700" d="M305 580q38 0 64 -23t26 -67v-250q0 -34 24 -58q14 -13 63 -42q11 -7 11 -11q0 -5 -12 -5q-39 0 -62 24l-30 25q-24 26 -24 67v250q-4 18 -19 45q-10 9 -41 15h-100v30h100z" />
<glyph unicode="&#xe061;" horiz-adv-x="700" d="M144 33q0 14 10 23.5t23 9.5q29 0 33 -33q1 -13 -9 -23t-24 -10q-13 0 -23 10t-10 23zM136 580q40 -12 88 -32q32 -32 32 -88v-280q0 -44 18 -62q28 -28 42 -28h270v-30h-270q-26 0 -58 32t-32 88v280q0 41 -27 68q-18 18 -63 22v30z" />
<glyph unicode="&#xe062;" horiz-adv-x="700" d="M340 191q0 14 10 23.5t23 9.5q29 0 33 -33q1 -13 -9 -23t-24 -10q-13 0 -23 10t-10 23zM142 580q40 -12 88 -32q32 -32 32 -88v-280q0 -41 22 -63q27 -27 38 -27h270v-30h-270q-26 0 -58 32t-32 88v280q0 37 -28 65q-17 17 -62 25v30z" />
<glyph unicode="&#xe063;" horiz-adv-x="700" d="M148 279q-1 -25 14 -42t44 -17h252q24 0 91 -23q71 -24 71 -39q0 -5 -42 2q-19 3 -60 18q-33 12 -60 12h-250q-42 0 -66 24.5t-24 65.5v100h30v-101z" />
<glyph unicode="&#xe064;" horiz-adv-x="700" d="M154 220v30h290q41 0 71 -34t33 -83q5 -89 -17 -89q-17 0 -12 48t-14 86q-21 42 -61 42h-290z" />
<glyph unicode="&#xe065;" horiz-adv-x="700" d="M145 210h290q42 0 65 44q20 38 16 88q-3 47 10 47q18 0 13 -92q-3 -49 -33 -83t-71 -34h-290v30z" />
<glyph unicode="&#xe066;" horiz-adv-x="700" d="M264 240q2 27 23 43.5t48 15.5q28 -2 46 -23t16 -49q-2 -25 -20 -41.5t-44 -16.5q13 -83 63 -84q90 -1 146 38q42 30 74 74q26 36 27 36q2 0 3 -8q6 -46 -40 -94q-29 -30 -56 -43q-79 -40 -147 -40q-13 0 -26 2q-60 8 -111 160h-190v30h188z" />
<glyph unicode="&#xe067;" horiz-adv-x="700" d="M288 240q14 0 25 -40q19 -67 23 -75q17 -40 45 -40q92 0 146 38q42 30 74 74q26 36 27 36q2 0 3 -8q6 -46 -40 -94q-29 -30 -56 -43q-79 -40 -147 -40q-13 0 -26 2q-60 8 -86 160h-215v30h227z" />
<glyph unicode="&#xe068;" horiz-adv-x="700" d="M303 180h-227v30h205q10 44 24 77q31 78 72 83q13 2 26 2q68 0 147 -40q27 -13 56 -43q46 -48 40 -94q-1 -8 -3 -8q-30 0 -58 48q-33 57 -52 68q-56 32 -137 32q-28 0 -45 -40q-4 -8 -23 -75q-11 -40 -25 -40z" />
<glyph unicode="&#xe069;" horiz-adv-x="700" d="M450 120h-30v460h30v-460zM305 537l-114 -113l-21 21l134 135h31v-460h-30v417z" />
<glyph unicode="&#xe06a;" horiz-adv-x="700" d="M523 120h-30v460h30v-460zM199 570h239v-24h-212v-163q52 22 93 22q62 0 101 -39t39 -101q0 -61 -40 -102t-110 -41q-55 0 -131 31l9 23q67 -27 117 -27q57 0 91.5 30t34.5 86q0 50 -32.5 82t-83.5 32q-57 0 -100 -34l-15 8v217z" />
<glyph unicode="&#xe070;" horiz-adv-x="550" d="M224 550l-91 -91l-17 17l107 108h25v-368h-24v334z" />
<glyph unicode="&#xe071;" horiz-adv-x="550" d="M96 239h223v-23h-248v23q5 24 9 48q18 49 67 74l102 44q52 29 46 75q-5 37 -33.5 58.5t-66.5 19.5q-81 -5 -100 -78h-24q27 104 124 104q51 0 88 -34.5t37 -84.5q0 -46 -55 -79q-5 -3 -108 -49q-46 -20 -61 -98z" />
<glyph unicode="&#xe072;" horiz-adv-x="550" d="M175 402v20q41 0 64.5 20t23.5 54q0 31 -22 49t-54 18q-41 0 -82 -31l-11 17q54 36 93 36t69 -24t30 -63q0 -56 -53 -81q71 -21 71 -95q0 -47 -34 -75.5t-81 -28.5q-35 0 -102 28l8 19q53 -26 97 -26q38 0 63.5 23.5t25.5 60.5q0 39 -27 61q-24 18 -63 18h-16z" />
<glyph unicode="&#xe073;" horiz-adv-x="550" d="M327 322l-54 -2v-104h-24v104h-168l192 280v-256l54 -1v-21zM249 344v177l-121 -177h121z" />
<glyph unicode="&#xe074;" horiz-adv-x="550" d="M100 576h191v-19h-170v-131q42 18 75 18q49 0 80.5 -31t31.5 -81q0 -49 -32 -81.5t-88 -32.5q-44 0 -105 24l7 19q53 -22 94 -22q46 0 73.5 24t27.5 69q0 40 -26 65.5t-67 25.5q-46 0 -80 -27l-12 6v174z" />
<glyph unicode="&#xe075;" horiz-adv-x="400" d="M290 0h-180v450h180v-450zM140 30h120v390h-120v-390zM200 580l90 -90h-180z" />
<glyph unicode="&#xe076;" horiz-adv-x="400" d="M80 480q0 120 120 120t120 -120v-480h-240v480zM110 398v-368h180v368q-37 -38 -90 -38t-90 38zM110 480q0 -37 26.5 -63.5t63.5 -26.5q36 0 63.5 30t26.5 60q-1 38 -27 64t-63 26t-63.5 -26t-26.5 -64z" />
<glyph unicode="&#xe077;" horiz-adv-x="400" d="M80 480q0 120 120 120t120 -120v-480h-240v480zM110 398v-368h180v368q-37 -38 -90 -38t-90 38z" />
<glyph unicode="&#xe078;" horiz-adv-x="400" d="M80 480q0 120 120 120t120 -120v-480h-240v480zM110 245v-215h180v215q-39 -35 -90 -35t-90 35zM290 480q0 38 -26 64t-64 26q-37 0 -63.5 -26t-26.5 -64v-125q39 35 90 35t90 -35v125z" />
<glyph unicode="&#xe079;" horiz-adv-x="400" d="M301 120h-180v400l90 90l90 -90v-400zM151 150h120v355h-120v-355zM301 60v-60h-180v60h180z" />
<glyph unicode="&#xe07a;" horiz-adv-x="400" d="M80 480q0 120 120 120t120 -120v-480h-240v480zM110 30h90v450q0 19 -13 32t-32 13t-32 -13t-13 -32v-450z" />
<glyph unicode="&#xe07c;" d="M447 700v-120h141l-156 -156l-156 156h141v75h-405v45h435z" />
<glyph unicode="&#xe07d;" d="M447 504h-435v30h405v90h-141l156 156l156 -156h-141v-120z" />
<glyph unicode="&#xe07e;" d="M438 639v-345h-30v315h-90v-141l-156 156l156 156v-141h120z" />
<glyph unicode="&#xe07f;" d="M162 639h120v141l156 -156l-156 -156v141h-90v-315h-30v345z" />
<glyph unicode="&#xe080;" d="M315 357h-30v267h-141l156 156l156 -156h-141v-267z" />
<glyph unicode="&#xe081;" d="M167 470l-22 22l189 189l-99 99h220v-220l-99 99z" />
<glyph unicode="&#xe082;" d="M89 609v30h267v141l156 -156l-156 -156v141h-267z" />
<glyph unicode="&#xe083;" d="M145 758l22 22l189 -189l99 99v-220h-220l99 99z" />
<glyph unicode="&#xe084;" d="M315 780v-267h141l-156 -156l-156 156h141v267h30z" />
<glyph unicode="&#xe085;" d="M436 780l22 -22l-189 -189l99 -99h-220v220l99 -99z" />
<glyph unicode="&#xe086;" d="M505 639v-30h-267v-141l-156 156l156 156v-141h267z" />
<glyph unicode="&#xe087;" d="M456 492l-22 -22l-189 189l-99 -99v220h220l-99 -99z" />
<glyph unicode="&#xe088;" d="M425 370h130v-30h-450v30h274l-235 236l-99 -99v220h220l-99 -99z" />
<glyph unicode="&#xe089;" d="M525 370v-30h-450v30h210v254h-141l156 156l156 -156h-141v-254h210z" />
<glyph unicode="&#xe08a;" d="M434 628l-99 99h220v-220l-99 99l-235 -236h274v-30h-450v30h130z" />
<glyph unicode="&#xe08b;" d="M428 770l22 -22l-189 -189l99 -99h-220v220l99 -99zM525 370v-30h-450v30h450z" />
<glyph unicode="&#xe08c;" d="M525 370v-30h-450v30h450zM285 780h30v-255h141l-156 -155l-156 155h141v255z" />
<glyph unicode="&#xe08d;" d="M150 748l22 22l189 -189l99 99v-220h-220l99 99zM525 370v-30h-450v30h450z" />
<glyph unicode="&#xe08e;" d="M480 428l-22 -22l-189 189l-99 -99v220h220l-99 -99zM80 330h-30v450h30v-450z" />
<glyph unicode="&#xe08f;" d="M458 700l22 -22l-189 -189l99 -99h-220v220l99 -99zM110 330h-30v450h30v-450z" />
<glyph unicode="&#xe090;" d="M160 731l221 -221l99 99v-220h-220l99 99l-199 200v-358h-30v450h30v-49z" />
<glyph unicode="&#xe091;" d="M130 349v-19h-30v450h30v-387l229 229l-99 99h220v-220l-99 99z" />
<glyph unicode="&#xe092;" d="M564 517q0 -110 -70 -185q-75 -78 -194 -77q-124 1 -197 83q-66 74 -66 180t66 180q73 82 197 82q86 0 149 -41l67 64v-151h-155l67 65q-62 34 -128 33q-110 -2 -176 -75q-59 -66 -59 -159q0 -92 58 -156q65 -72 177 -75q101 -3 169 67q65 67 65 165h30z" />
<glyph unicode="&#xe093;" d="M301 255q-119 -1 -193 77q-71 75 -71 185h30q0 -98 65 -165q68 -70 169 -67q112 3 177 75q58 64 58 156q0 93 -59 159q-66 73 -176 75q-66 1 -128 -33l67 -65h-155v151l67 -64q64 41 149 41q124 0 197 -82q66 -74 66 -180t-66 -180q-73 -82 -197 -83z" />
<glyph unicode="&#xe094;" d="M448 738l63 64v-150l-148 1l64 62q-61 36 -127 35q-110 -2 -176 -75q-59 -66 -59 -159q0 -92 58 -156q65 -72 177 -75q101 -3 168 67q66 67 66 165h30q0 -110 -70 -185q-75 -78 -194 -77q-124 1 -197 83q-66 74 -66 180t66 180q73 82 197 82q80 0 148 -42zM564 225h-526 v30h526v-30z" />
<glyph unicode="&#xe095;" d="M158 738q68 42 148 42q124 0 198 -82q65 -74 65 -180t-66 -180q-73 -82 -197 -83q-119 -1 -193 77q-71 75 -71 185h30q0 -98 66 -165q67 -70 168 -67q112 3 177 75q58 64 58 156q0 93 -59 159q-66 73 -176 75q-66 1 -127 -35l64 -62l-148 -1v150zM568 225h-526v30h526 v-30z" />
<glyph unicode="&#xe096;" d="M579 517q0 -110 -70 -185q-75 -78 -194 -77q-124 1 -197 83q-66 74 -66 180t66 180q73 82 197 82q87 0 151 -43l65 65v-148h-152l64 64q-57 33 -128 32q-110 -2 -176 -75q-59 -66 -59 -159q0 -92 58 -156q65 -72 177 -75q101 -3 168 67q66 67 66 165h30zM51 255h-30v525 h30v-525z" />
<glyph unicode="&#xe097;" d="M315 255q-119 -1 -193 77q-71 75 -71 185h30q0 -98 65 -165q68 -70 169 -67q112 3 177 75q58 64 58 156q0 93 -59 159q-66 73 -176 75q-76 1 -130 -35l65 -64h-148v153l64 -65q64 41 149 41q124 0 197 -82q66 -74 66 -180t-66 -180q-73 -82 -197 -83zM51 255h-30v525h30 v-525z" />
<glyph unicode="&#xe098;" d="M132 276q-42 0 -42 42q0 76 113 209l-55 55h108q139 124 222 124q42 0 42 -42q0 -41 -40.5 -107t-107.5 -133t-133 -107.5t-107 -40.5zM122 321q0 -13 13 -13q27 0 82 33q66 40 133 107t106 132q32 54 32 81q0 13 -13 13q-24 0 -74 -31q-59 -34 -115 -90v-109l-53 53 q-57 -56 -86 -110q-25 -42 -25 -66z" />
<glyph unicode="&#xe099;" d="M520 664q0 -41 -40.5 -107t-107.5 -133t-133 -107.5t-107 -40.5q-42 0 -42 42q0 83 124 222v108l55 -55q133 113 209 113q42 0 42 -42zM475 674q-24 0 -66 -25q-54 -29 -110 -86l53 -53h-109q-56 -56 -90 -115q-31 -50 -31 -74q0 -13 13 -13q27 0 81 32q65 39 132 106 t107 133q33 55 33 82q0 13 -13 13z" />
<glyph unicode="&#xe09a;" d="M90 664q0 42 42 42q76 0 209 -113l55 55v-108q124 -139 124 -222q0 -42 -42 -42q-41 0 -107 40.5t-133 107.5t-107.5 133t-40.5 107zM135 674q-13 0 -13 -13q0 -27 33 -82q40 -66 107 -133t132 -106q54 -32 81 -32q13 0 13 13q0 24 -31 74q-34 59 -90 115h-109l53 53 q-56 57 -110 86q-42 25 -66 25z" />
<glyph unicode="&#xe09b;" d="M478 276q-41 0 -107 40.5t-133 107.5t-107.5 133t-40.5 107q0 42 42 42q83 0 222 -124h108l-55 -55q113 -133 113 -209q0 -42 -42 -42zM488 321q0 24 -25 66q-29 54 -86 110l-53 -53v109q-56 56 -115 90q-50 31 -74 31q-13 0 -13 -13q0 -27 32 -81q39 -65 106 -132 t133 -107q55 -33 82 -33q13 0 13 13z" />
<glyph unicode="&#xe09c;" d="M126 276q-42 0 -42 42q0 76 113 209l-55 55h108q139 124 222 124q42 0 42 -42q0 -41 -40.5 -107t-107.5 -133t-133 -107.5t-107 -40.5zM116 321q0 -13 13 -13q27 0 82 33q66 40 133 107t106 132q32 54 32 81q0 13 -13 13q-24 0 -74 -31q-59 -34 -115 -90v-109l-53 53 q-57 -56 -86 -110q-25 -42 -25 -66zM558 245h-514v30h514v-30z" />
<glyph unicode="&#xe09d;" d="M517 664q0 -41 -40.5 -107t-107.5 -133t-133 -107.5t-107 -40.5q-42 0 -42 42q0 83 124 222v108l55 -55q133 113 209 113q42 0 42 -42zM472 674q-24 0 -66 -25q-54 -29 -110 -86l53 -53h-109q-56 -56 -90 -115q-31 -50 -31 -74q0 -13 13 -13q27 0 81 32q65 39 132 106 t107 133q33 55 33 82q0 13 -13 13zM559 245h-514v30h514v-30z" />
<glyph unicode="&#xe09e;" d="M88 664q0 42 42 42q76 0 209 -113l55 55v-108q124 -139 124 -222q0 -42 -42 -42q-41 0 -107 40.5t-133 107.5t-107.5 133t-40.5 107zM133 674q-13 0 -13 -13q0 -27 33 -82q40 -66 107 -133t132 -106q54 -32 81 -32q13 0 13 13q0 24 -31 74q-34 59 -90 115h-109l53 53 q-56 57 -110 86q-42 25 -66 25zM559 245h-514v30h514v-30z" />
<glyph unicode="&#xe09f;" d="M478 276q-41 0 -107 40.5t-133 107.5t-107.5 133t-40.5 107q0 42 42 42q83 0 222 -124h108l-55 -55q113 -133 113 -209q0 -42 -42 -42zM488 321q0 24 -25 66q-29 54 -86 110l-53 -53v109q-56 56 -115 90q-50 31 -74 31q-13 0 -13 -13q0 -27 32 -81q39 -65 106 -132 t133 -107q55 -33 82 -33q13 0 13 13zM558 245h-514v30h514v-30z" />
<glyph unicode="&#xe0a0;" d="M153 276q-42 0 -42 42q0 76 113 209l-55 55h108q139 124 222 124q42 0 42 -42q0 -41 -40.5 -107t-107.5 -133t-133 -107.5t-107 -40.5zM143 321q0 -13 13 -13q27 0 82 33q66 40 133 107t106 132q32 54 32 81q0 13 -13 13q-24 0 -74 -31q-59 -34 -115 -90v-109l-53 53 q-57 -56 -86 -110q-25 -42 -25 -66zM110 256h-30v524h30v-524z" />
<glyph unicode="&#xe0a1;" d="M541 664q0 -41 -40.5 -107t-107.5 -133t-133 -107.5t-107 -40.5q-42 0 -42 42q0 83 124 222v108l55 -55q133 113 209 113q42 0 42 -42zM110 256h-30v524h30v-524zM496 674q-24 0 -66 -25q-54 -29 -110 -86l53 -53h-109q-56 -56 -90 -115q-31 -50 -31 -74q0 -13 13 -13 q27 0 81 32q65 39 132 106t107 133q33 55 33 82q0 13 -13 13z" />
<glyph unicode="&#xe0a2;" d="M111 664q0 42 42 42q76 0 209 -113l55 55v-108q124 -139 124 -222q0 -42 -42 -42q-41 0 -107 40.5t-133 107.5t-107.5 133t-40.5 107zM156 674q-13 0 -13 -13q0 -27 33 -82q40 -66 107 -133t132 -106q54 -32 81 -32q13 0 13 13q0 24 -31 74q-34 59 -90 115h-109l53 53 q-56 57 -110 86q-42 25 -66 25zM110 256h-30v524h30v-524z" />
<glyph unicode="&#xe0a3;" d="M499 276q-41 0 -107 40.5t-133 107.5t-107.5 133t-40.5 107q0 42 42 42q83 0 222 -124h108l-55 -55q113 -133 113 -209q0 -42 -42 -42zM110 256h-30v524h30v-524zM509 321q0 24 -25 66q-29 54 -86 110l-53 -53v109q-56 56 -115 90q-50 31 -74 31q-13 0 -13 -13 q0 -27 32 -81q39 -65 106 -132t133 -107q55 -33 82 -33q13 0 13 13z" />
<glyph unicode="&#xe0a4;" d="M227 301l-9 35q-11 43 -78 129q-63 81 -63 94q0 8 11 8q5 0 12 -2q37 -8 61 -31q15 -14 29 -38q10 -18 14 -18q3 0 6 4t3 8.5t1 14.5q2 13 -8 83q-11 79 -11 116q0 46 14 63q3 4 6 4q14 0 26 -105q14 -118 20 -130q4 -8 15 -8q10 0 14 11.5t22 140.5q14 103 32 103 q14 0 14 -34t-16 -114q-17 -90 -18 -100q-2 -16 7 -17q9 -4 17 10l53 119q39 85 54 81q6 -1 6 -13q0 -24 -29 -102q-33 -92 -35 -101q-2 -8 1 -10q2 -1 4 0q4 0 9 7l44 67q36 52 61 66q7 2 7 -8q0 -25 -50 -136l-75 -165l-14 -32h-157z" />
<glyph unicode="&#xe0a5;" d="M590 461l-158 -158l-159 158h143v77h-405v36h405v76h-143l159 158l158 -158h-140v-189h140z" />
<glyph unicode="&#xe0a6;" d="M578 620l-172 -168v152l-89 -1v-309h-38v309l-89 1v-152l-169 168l169 170v-152h216v152z" />
<glyph unicode="&#xe0a7;" d="M320 519q30 4 56 18t45 35.5t30 49t11 58.5h-85l104 105l104 -105h-85q0 -39 -14 -73.5t-38 -61t-57 -43.5t-71 -21v-187h-38v187q-38 3 -71.5 20t-58 44t-38.5 61.5t-14 73.5h-85l104 105l104 -105h-85q0 -31 11 -59t30.5 -49.5t46 -35.5t56.5 -17v175h38v-175z" />
<glyph unicode="&#xe0a8;" d="M296 808q72 0 119 -53l49 49v-131h-134l49 49q-34 37 -76 37q-48 0 -82 -33t-34 -80q0 -46 34 -79t82 -33q5 0 16 2v-224h-46v172q-59 8 -98 54t-39 108q0 67 47 114.5t113 47.5z" />
<glyph unicode="&#xe0a9;" d="M304 808q66 0 113 -47.5t47 -114.5q0 -62 -39 -108t-98 -54v-172h-46v224q11 -2 16 -2q48 0 82 33t34 79q0 47 -34 80t-82 33q-42 0 -76 -37l49 -49h-134v131l49 -49q47 53 119 53z" />
<glyph unicode="&#xe0aa;" d="M558 400l-135 -134l-21 21l97 97l-316 1l-120 -120l-21 21l114 114l-114 114l21 21l120 -120h318l-99 100l21 21z" />
<glyph unicode="&#xe0ad;" d="M300 349h89l-103 -104l-104 104h89v155h-230v29h230v134l-91 92l21 21l85 -84l84 84l22 -21l-92 -92v-134h155v89l104 -103l-104 -104v89h-155v-155z" />
<glyph unicode="&#xe0ae;" d="M176 404l84 -84h-190v190l84 -84l124 124l-208 208l22 22l208 -208l80 80v128h30v-120h120v-30h-128l-80 -80l124 -124l84 84v-190h-190l84 84l-124 124z" />
<glyph unicode="&#xe0af;" d="M38 277l120 120l-120 121l262 262l121 -120l120 120l21 -21l-120 -120l120 -121l-262 -262l-121 120l-120 -120zM179 418l221 221l-100 99l-220 -220zM300 297l220 221l-99 100l-222 -221z" />
<glyph unicode="&#xe0b0;" horiz-adv-x="560" d="M470 464q0 -78 -56 -133.5t-134 -55.5t-134 55.5t-56 133.5q0 74 49.5 127.5t121.5 61.5v68h41v-68q71 -8 119.5 -62t48.5 -127zM434 464q0 59 -38 102t-94 51v-59h-41v59q-58 -7 -96.5 -51t-38.5 -102q0 -64 45.5 -108.5t108.5 -44.5q64 0 109 45.5t45 107.5z" />
<glyph unicode="&#xe0b1;" horiz-adv-x="560" d="M281 275q-79 0 -134 55.5t-55 133.5q0 68 42 120l-48 48l29 29l48 -48q51 41 117 41q79 0 134.5 -55.5t55.5 -134.5t-55 -134t-134 -55zM281 618q-52 0 -93 -30l42 -42l-29 -29l-42 42q-32 -42 -32 -95q0 -64 44.5 -109t107.5 -45q65 0 110 46t45 110q0 63 -45 107.5 t-108 44.5z" />
<glyph unicode="&#xe0b2;" horiz-adv-x="560" d="M470 465q0 -78 -55.5 -134t-133.5 -56q-74 0 -127.5 49.5t-61.5 121.5h-68v41h68q8 71 62 119.5t127 48.5q78 0 133.5 -56t55.5 -134zM434 465q0 64 -45.5 109t-107.5 45q-59 0 -102 -38t-51 -94h59v-41h-59q7 -58 51 -96.5t102 -38.5q64 0 108.5 45.5t44.5 108.5z" />
<glyph unicode="&#xe0b3;" horiz-adv-x="560" d="M281 276q-68 0 -120 42l-48 -48l-29 29l48 48q-41 51 -41 117q0 79 55.5 134.5t134.5 55.5t134 -55t55 -134t-55.5 -134t-133.5 -55zM433 462q0 65 -46 110t-110 45q-63 0 -107.5 -45t-44.5 -108q0 -52 30 -93l42 42l29 -29l-42 -42q42 -32 95 -32q64 0 109 44.5 t45 107.5z" />
<glyph unicode="&#xe0b4;" horiz-adv-x="560" d="M470 466q0 -73 -48.5 -127t-119.5 -62v-68h-41v68q-72 8 -121.5 61.5t-49.5 127.5q0 78 56 133.5t134 55.5t134 -55.5t56 -133.5zM302 313q56 8 94 51t38 102q0 62 -45 107.5t-109 45.5q-63 0 -108.5 -44.5t-45.5 -108.5q0 -58 38.5 -102t96.5 -51v59h41v-59z" />
<glyph unicode="&#xe0b5;" horiz-adv-x="560" d="M397 317q-51 -41 -117 -41q-79 0 -134.5 55.5t-55.5 134.5t55 134t134 55t134 -55.5t55 -133.5q0 -68 -42 -120l48 -48l-29 -29zM401 371q32 42 32 95q0 64 -44.5 109t-107.5 45q-65 0 -110 -46t-45 -110q0 -63 45 -107.5t108 -44.5q52 0 93 30l-42 42l29 29z" />
<glyph unicode="&#xe0b6;" horiz-adv-x="560" d="M536 447h-68q-8 -72 -61.5 -121.5t-127.5 -49.5q-78 0 -133.5 56t-55.5 134t55.5 134t133.5 56q73 0 127 -48.5t62 -119.5h68v-41zM432 447h-59v41h59q-8 56 -51 94t-102 38q-62 0 -107.5 -45t-45.5 -109q0 -63 44.5 -108.5t108.5 -45.5q58 0 102 38.5t51 96.5z" />
<glyph unicode="&#xe0b7;" horiz-adv-x="560" d="M476 630l-48 -48q41 -51 41 -117q0 -79 -55.5 -134.5t-134.5 -55.5t-134 55t-55 134t55.5 134t133.5 55q68 0 120 -42l48 48zM403 557l-42 -42l-29 29l42 42q-42 32 -95 32q-64 0 -109 -44.5t-45 -107.5q0 -65 46 -110t110 -45q63 0 107.5 45t44.5 108q0 52 -30 93z" />
<glyph unicode="&#xe0b8;" horiz-adv-x="560" d="M280 632q78 0 133.5 -55.5t55.5 -133.5t-55.5 -133.5t-133.5 -55.5t-133.5 55.5t-55.5 133.5t55.5 133.5t133.5 55.5zM432 461q-7 54 -45 90.5t-89 43.5v-134h134zM298 291q54 7 90.5 45t43.5 89h-134v-134zM262 291v134h-134q7 -54 45 -90.5t89 -43.5zM128 461h134v134 q-54 -7 -90.5 -45t-43.5 -89z" />
<glyph unicode="&#xe0b9;" d="M400 775v-90q-19 9 -41 9q-49 0 -89 -36t-40 -83t40 -83t89 -36q22 0 41 9v-90q-82 0 -141 59t-59 141q0 83 59 141.5t141 58.5z" />
<glyph unicode="&#xe0ba;" d="M500 580h-90q3 17 3 37q0 133 -113 133t-113 -132q0 -22 3 -38h-90q4 58 25 100q50 100 175 100t175 -100q21 -42 25 -100z" />
<glyph unicode="&#xe0bb;" d="M200 375v90q19 -9 41 -9q49 0 89 36t40 83t-40 83t-89 36q-22 0 -41 -9v90q83 0 141.5 -58.5t58.5 -141.5q0 -82 -58.5 -141t-141.5 -59z" />
<glyph unicode="&#xe0bc;" d="M500 780q-4 -58 -25 -100q-50 -100 -175 -100t-175 100q-21 42 -25 100h90q-3 -17 -3 -38q0 -132 113 -132t113 133q0 20 -3 37h90z" />
<glyph unicode="&#xe0bd;" d="M232 549q26 1 63.5 56t71.5 55t68 -53.5t67 -53.5q42 0 62 21q14 14 29 53l23 -26q-32 -75 -114 -78q-37 -1 -63 26q-7 7 -36 50q-18 28 -36 28q-23 0 -59.5 -53.5t-75.5 -53.5q-35 0 -60 29l-34 53q-18 27 -40 26q-20 3 -42 -6.5t-49 -57.5l-23 16q18 42 36 56 q25 22 78 22q35 0 56 -29l33 -54q17 -27 45 -26z" />
<glyph unicode="&#xe0be;" d="M262 560l-108 108l-98 -98l-32 32l130 130l108 -108l108 108l108 -108l66 66l32 -32l-98 -98l-108 108z" />
<glyph unicode="&#xe0c0;" d="M300 585q82 0 140.5 -33t58.5 -80t-58.5 -80t-140.5 -33t-140.5 33t-58.5 80t58.5 80t140.5 33zM300 555q-58 0 -105.5 -19.5t-59.5 -47.5h330q-12 27 -51 45q-47 22 -114 22zM134 458q10 -27 50 -46q47 -23 116 -23q59 0 107.5 20t58.5 49h-332z" />
<glyph unicode="&#xe0c1;" d="M384 635q36 0 57 -21t21 -57q0 -81 -82.5 -163t-163.5 -82q-36 0 -57 21t-21 57q0 81 82.5 163t163.5 82zM168 391q0 -13 4 -23l233 233q-11 4 -25 4q-66 0 -139 -73t-73 -141zM192 346q11 -5 27 -5q66 0 139.5 73.5t73.5 140.5q0 15 -5 26z" />
<glyph unicode="&#xe0c2;" d="M187 472q0 82 33 140.5t80 58.5t80 -58.5t33 -140.5t-33 -140.5t-80 -58.5t-80 58.5t-33 140.5zM217 472q0 -58 19.5 -105.5t47.5 -59.5v330q-27 -12 -45 -51q-22 -47 -22 -114zM314 306q27 10 46 50q23 47 23 116q0 59 -20 107.5t-49 58.5v-332z" />
<glyph unicode="&#xe0c3;" d="M462 388q0 -36 -21 -57t-57 -21q-81 0 -163 82.5t-82 163.5q0 36 21 57t57 21q81 0 163 -82.5t82 -163.5zM218 604q-13 0 -23 -4l233 -233q4 11 4 25q0 66 -73 139t-141 73zM173 580q-5 -11 -5 -27q0 -66 73.5 -139.5t140.5 -73.5q15 0 26 5z" />
<glyph unicode="&#xe0c4;" d="M555 579v-34l-450 -260h450v-30h-510v30z" />
<glyph unicode="&#xe0c5;" d="M45 579l510 -294v-30h-510v30h450l-450 260v34z" />
<glyph unicode="&#xe0c6;" horiz-adv-x="0" d="M-380 84q0 35 25.5 60.5t61.5 25.5q35 0 60.5 -25.5t25.5 -60.5q0 -36 -25.5 -61.5t-60.5 -25.5q-36 0 -61.5 25.5t-25.5 61.5zM-293 24q24 0 41.5 17.5t17.5 42.5q0 24 -17.5 41.5t-41.5 17.5q-25 0 -42.5 -17.5t-17.5 -41.5q0 -25 17.5 -42.5t42.5 -17.5z" />
<glyph unicode="&#xe0c7;" horiz-adv-x="0" d="M-390 85q0 36 25.5 61.5t61.5 25.5q35 0 60.5 -25.5t25.5 -61.5q0 -35 -25.5 -60.5t-60.5 -25.5q-36 0 -61.5 25.5t-25.5 60.5z" />
<glyph unicode="&#xe0c8;" horiz-adv-x="500" d="M246 612q-17 63 -17 94q0 40 24 40q23 0 23 -37t-20 -97q74 78 105 78q15 0 15 -15q0 -33 -113 -73q0 4 57.5 -19t57.5 -46q0 -21 -20 -21q-33 0 -102 74q22 -72 22 -98q0 -34 -24 -34q-27 0 -27 41q0 36 19 91q-68 -70 -103 -70q-21 0 -21 19q0 32 118 61q-3 -3 -59 23 q-59 28 -59 49q0 17 18 17q31 0 106 -77z" />
<glyph unicode="&#xe0c9;" horiz-adv-x="500" d="M480 640v-30h-460v30h460z" />
<glyph unicode="&#xe0ca;" horiz-adv-x="500" d="M250 650q81 0 130 62l22 -22q-62 -50 -62 -130t62 -130l-22 -22q-50 62 -130 62t-130 -62l-22 22q62 50 62 130t-62 130l22 22q50 -62 130 -62z" />
<glyph unicode="&#xe0cb;" horiz-adv-x="500" d="M242 705l136 40l-155 -330h-38l135 284l-78 -24q-11 -45 -59 -45q-25 0 -42.5 17.5t-17.5 42.5t17.5 42.5t42.5 17.5q48 0 59 -45z" />
<glyph unicode="&#xe0cc;" horiz-adv-x="500" d="M151 330h-30v450h30v-450zM271 330h-30v450h30v-450z" />
<glyph unicode="&#xe0d0;" d="M195 550q0 161 -145 230q85 -16 137.5 -79.5t52.5 -150.5t-52.5 -150.5t-137.5 -79.5q145 69 145 230zM405 550q0 -161 145 -230q-85 16 -137.5 79.5t-52.5 150.5t52.5 150.5t137.5 79.5q-145 -69 -145 -230z" />
<glyph unicode="&#xe0d1;" d="M237 740q39 -25 63 -74q24 49 63 74q55 35 97 40q-130 -77 -130 -230t130 -230q-42 5 -97 40q-39 25 -63 74q-10 -16 -20 -30q-23 -32 -43 -44q-55 -35 -97 -40q130 77 130 230t-130 230q42 -5 97 -40z" />
<glyph unicode="&#xe0d2;" d="M280 381q-75 68 -75 169t75 169q-47 47 -120 61q76 1 140 -45q61 46 138 45h2h-2q-70 -15 -118 -60q75 -70 75 -170t-75 -170q50 -47 120 -60q-77 -1 -140 44q-65 -45 -140 -44q71 14 120 61zM300 402q50 63 50 148q0 84 -50 148q-50 -62 -50 -148q0 -85 50 -148z" />
<glyph unicode="&#xe0d3;" d="M500 336l-199 199l-199 -199l-24 24l199 199l-199 199l22 22l199 -199l199 199l24 -24l-199 -199l199 -199z" />
<glyph unicode="&#xe0d4;" horiz-adv-x="700" d="M382 -8h-55l120 120h-135q-57 0 -81 24q-39 39 -39 81v80q0 32 -13 45t-47 15h-116v30h116q54 2 73 -17q13 -13 16 -33q1 -7 1 -40v-80q0 -27 18.5 -47.5t44.5 -25.5q11 -2 27 -2h135l-120 120h55l120 -120h113l-120 120h55l135 -135l-135 -135h-55l120 120h-113z" />
<glyph unicode="&#xe0d5;" horiz-adv-x="700" d="M609 538q-4 -82 -53 -131l-22 -22l-22 21l22 22q43 43 46 110q3 76 -56.5 129.5t-137.5 51.5q-59 -2 -99 -42l-147 -147h135l30 -30h-217v218l32 -32v-130l144 144q45 45 122 48q91 4 159 -59t64 -151zM408 240h-30v340h30v-340z" />
<glyph unicode="&#xe0d6;" horiz-adv-x="350" d="M266 418q0 -33 -20.5 -58.5t-51.5 -32.5l1 -180h-37v181q-32 6 -53.5 31.5t-21.5 58.5q0 34 21.5 59.5t54.5 31.5l-1 178h37v-181q71 -13 71 -88z" />
<glyph unicode="&#xe0d8;" horiz-adv-x="700" d="M120 535v30h215v215h30v-215h215v-30h-215v-215h-30v215h-215z" />
<glyph unicode="&#xe0d9;" horiz-adv-x="700" d="M265 565h170v215h30v-215h155v-30h-155v-215h-30v215h-170v-215h-30v215h-155v30h155v215h30v-215z" />
<glyph unicode="&#xe0da;" horiz-adv-x="700" d="M565 551l-170 -171v43l112 112h-247v-215h-30v215h-95v30h95v215h30v-215h248l-113 113v43z" />
<glyph unicode="&#xe0db;" horiz-adv-x="700" d="M665 550l-170 -171v43l112 112h-246l-1 -214h-30v214l-170 1v-215h-30v215h-95v30h95v215h30v-215h170v215h30l1 -215h246l-108 109v44z" />
<glyph unicode="&#xe0dc;" horiz-adv-x="700" d="M305 379l-171 171l170 171v-43l-111 -113h248v215h30v-215h95v-30h-95v-215h-30v215h-249l113 -113v-43z" />
<glyph unicode="&#xe0dd;" horiz-adv-x="700" d="M240 700q40 0 81 -39l67 -72q39 -39 72 -39q51 0 95 44.5t55 105.5h30q-8 -75 -58.5 -127.5t-121.5 -52.5q-44 0 -88 39l-68 72q-37 39 -64 39q-59 0 -100 -45q-38 -40 -50 -105h-30q8 76 58 128t122 52z" />
<glyph unicode="&#xe0e0;" horiz-adv-x="250" d="M90 650v-200q0 -43 25 -69q19 -18 48 -26q14 -3 27 -5v-30q-33 0 -66 16q-64 33 -64 114v200q0 121 130 130v-30l-27 -6q-30 -9 -48 -28q-25 -25 -25 -66z" />
<glyph unicode="&#xe0e1;" horiz-adv-x="250" d="M160 650q0 41 -25 66q-18 19 -48 28l-27 6v30q130 -9 130 -130v-200q0 -81 -64 -114q-32 -16 -66 -16v30q13 2 27 5q29 8 48 26q25 26 25 69v200z" />
<glyph unicode="&#xe0e2;" horiz-adv-x="250" d="M65 320v460h120v-30h-90v-400h90v-30h-120z" />
<glyph unicode="&#xe0e3;" horiz-adv-x="250" d="M185 320h-120v30h90v400h-90v30h120v-460z" />
<glyph unicode="&#xe0e4;" horiz-adv-x="250" d="M156 781l33 1l-91 -231l91 -230h-33l-95 229z" />
<glyph unicode="&#xe0e5;" horiz-adv-x="250" d="M189 550l-95 -229h-33l91 230l-91 231l33 -1z" />
<glyph unicode="&#xe0e6;" horiz-adv-x="475" d="M54 576l358 -576h-44l-358 576h44z" />
<glyph unicode="&#xe0e7;" horiz-adv-x="450" d="M248 30h115v-30h-146l-110 -111l-21 21l89 90h-89v30h118l138 135l22 -21z" />
<glyph unicode="&#xe0e8;" horiz-adv-x="700" d="M375 570q24 0 37 -15t13 -35t-13 -35t-37 -15t-37 15t-13 35t13 35t37 15zM375 700q24 0 37 -15t13 -35t-13 -35t-37 -15t-37 15t-13 35t13 35t37 15z" />
<glyph unicode="&#xe0e9;" horiz-adv-x="700" d="M287 570q24 0 37 -15t13 -35t-13 -35t-37 -15t-37 15t-13 35t13 35t37 15zM417 570q24 0 37 -15t13 -35t-13 -35t-37 -15t-37 15t-13 35t13 35t37 15z" />
<glyph unicode="&#xe0ea;" horiz-adv-x="686" d="M479 461q-25 33 -66 56q-48 28 -97 28q-93 0 -159 -66t-66 -159v-246zM541 30v290q0 4 -0.5 18t-15.5 48q-14 31 -30 47l-402 -403h448zM22 -40l-22 22l61 62v276q0 106 75.5 182.5t179.5 72.5q119 -5 191 -87l87 88l22 -22l-92 -92q42 -57 47 -136v-6v-320h-508z" />
<glyph unicode="&#xe0eb;" horiz-adv-x="450" d="M316 400h-30v133l-134 -133h-41l141 142q-38 1 -76 19q-54 26 -56 75q2 48 52 74q45 23 114 21l30 1v-332zM286 571v133q-63 1 -98.5 -19t-35.5 -48q0 -27 33 -46q37 -21 101 -20z" />
<glyph unicode="&#xe0ec;" horiz-adv-x="0" d="M-167 -67q0 -19 -14 -33t-33 -14t-33 14t-14 33t14 33t33 14t33 -14t14 -33zM-294 -67q0 -19 -14 -33t-33 -14t-33 14t-14 33t14 33t33 14t33 -14t14 -33zM-424 -67q0 -19 -14 -33t-33 -14t-33 14t-14 33t14 33t33 14t33 -14t14 -33zM-167 -67q0 -19 -14 -33t-33 -14 t-33 14t-14 33t14 33t33 14t33 -14t14 -33zM-294 -67q0 -19 -14 -33t-33 -14t-33 14t-14 33t14 33t33 14t33 -14t14 -33zM-424 -67q0 -19 -14 -33t-33 -14t-33 14t-14 33t14 33t33 14t33 -14t14 -33z" />
<glyph unicode="&#xe0ed;" horiz-adv-x="0" d="M-80 -32q-4 -38 -29.5 -64t-60.5 -26q-28 0 -62 27.5t-48 27.5q-30 0 -40.5 -11t-18.5 -44h-31q4 38 29 64t61 26q24 0 57.5 -27.5t52.5 -27.5q45 0 55 55h35z" />
<glyph unicode="&#xe0f0;" horiz-adv-x="733" d="M10 300v480h600v-480q0 -124 -88 -212t-212 -88t-212 88t-88 212zM40 750v-450q0 -112 79 -191t191 -79t191 79t79 191v450h-540z" />
<glyph unicode="&#xe0f1;" horiz-adv-x="500" d="M303 107h-34v34h34v-34zM223 158h-28v-52h-12v52h-84l96 140v-128h28v-12zM354 309l12 -15v-173l-12 -15v203zM183 170v88l-60 -88h60zM66 48h400v-35h-400v35z" />
<glyph horiz-adv-x="938" d="M404 570q24 0 37 -15t13 -35t-13 -35t-37 -15t-37 15t-13 35t13 35t37 15zM534 570q24 0 37 -15t13 -35t-13 -35t-37 -15t-37 15t-13 35t13 35t37 15zM671 747h-400v30h400v-30zM413.013 385.049q0 22.8906 16.2148 39.1055t39.1055 16.2148q22.2549 0 38.4697 -16.2148 t16.2148 -39.1055q0 -22.2559 -16.2148 -38.4697q-16.2148 -16.2148 -38.4697 -16.2148q-22.8906 0 -39.1055 16.2148q-16.2148 16.2139 -16.2148 38.4697z" />
</font>
</defs>
</svg>
